<svg xmlns="http://www.w3.org/2000/svg" xmlns:xlink="http://www.w3.org/1999/xlink" width="162.27" height="162.27" viewBox="0 0 162.27 162.27"><defs><clipPath id="a"><rect x="14.87" y="37.71" width="132.3" height="91.74" fill="none"/></clipPath></defs><circle cx="81.13" cy="81.13" r="81.13" fill="#e41e26"/><path d="M20.24,124.86l0,0,2.9-3.85c-1.28-1.76-2.22-3-2.8-3.86l0,0,0,0,4.55,1.51,0,0,2.83-3.84,0,0c0,3.15-.07,4.73-.09,4.75q.32.12,4.56,1.51l0,.05-4.59,1.43q0,4.4,0,4.8l-.05,0,0,0c-.58-.82-1.5-2.12-2.74-3.9C21.8,124.34,20.28,124.84,20.24,124.86Z" fill="#fff"/><path d="M11.14,107.66l0-.06,3.8-3q-1.17-3-1.7-4.45l0-.06h0l4,2.63h0l3.73-3,0,.06c-.85,3-1.29,4.55-1.31,4.56q.27.2,4,2.63l0,.07-4.8.19c-.78,2.82-1.19,4.37-1.24,4.64l-.07,0,0-.06q-.53-1.41-1.64-4.47C12.78,107.56,11.17,107.64,11.14,107.66Z" fill="#fff"/><path d="M6.81,88.66V88.6l4.44-1.88q-.35-3.24-.48-4.74v-.06h0L14,85.5h0l4.37-1.9v.06c-1.61,2.71-2.42,4.06-2.45,4.07q.21.26,3.18,3.59v.06l-4.69-1.07c-1.48,2.53-2.29,3.92-2.41,4.16H12v-.07c-.09-1-.23-2.58-.42-4.75C8.42,89,6.84,88.66,6.81,88.66Z" fill="#fff"/><path d="M7.55,69.23v-.07l4.77-.67c.34-2.15.59-3.72.75-4.7v-.07h0L15.27,68h0L20,67.3v.07q-3.37,3.3-3.41,3.3c.09.2.8,1.63,2.15,4.28V75l-4.26-2.24c-2.08,2.06-3.22,3.19-3.39,3.4H11V76.1c.17-1,.44-2.55.82-4.69C9,70,7.58,69.23,7.55,69.23Z" fill="#fff"/><path d="M13.79,43.06c3.35,3.4,4.25,4.31,8.47,8.15-4.64-1-5.88-1.28-11.56-2.19C9.8,51,9,53,8.23,55L26.6,61.71c.46-1.25,1-2.47,1.49-3.68l-4.47-2-4.06-1.62c5,.82,5.6.92,9.4,1.76.39-.8.8-1.59,1.23-2.38C26.52,50.41,26,50,23.33,47.19L27,49.57l4.18,2.48,2.13-3.31L17.21,37.64C16.18,39.26,14.75,41.39,13.79,43.06Z" fill="#fff"/><path d="M35.05,32.41l-.58-.62C29.7,26.84,25,27.6,22.4,30.56s-3,7.58,3,11.85l.86.6c7.46,5,13.52,1.81,12.43-4.09A13.45,13.45,0,0,0,35.05,32.41Zm-1,8.28c-.36.39-1.45,1.56-5.31-1.52-1.44-1.18-2.93-2.41-3.33-3.85A2,2,0,0,1,27,32.94c1.6-.2,3.5,1.54,4.22,2.2l.61.58C33.48,37.28,35.19,39.4,34.07,40.69Z" fill="#fff"/><path d="M36.5,18.17l5.56,7.92a98.66,98.66,0,0,0-9.58-4.89q-1.95,1.57-3.8,3.26L41.9,38.88c1-.88,2-1.73,3-2.54l-6-7.56a93.16,93.16,0,0,1,9.07,5.29L51,32,40.88,15.31C39.39,16.21,37.93,17.17,36.5,18.17Z" fill="#fff"/><path d="M54.23,18.27A76.84,76.84,0,0,1,56.63,8q-3.12,1-6.12,2.32c-.29,2.12-.65,4.94-.84,7.06l0,.65L46.7,12.11q-2.37,1.17-4.63,2.49L51.9,31.5c1.14-.66,2.29-1.28,3.47-1.86L53.05,25l.22-1.42c1.54,1.39,3.58,3.27,5.07,4.73,1.43-.61,2.88-1.16,4.37-1.66A95.26,95.26,0,0,0,54.23,18.27Z" fill="#fff"/><path d="M65.74,21l-.8-3.18c1.65-.34,3.84-.86,5.5-1.14l-.71-4.36c-1.77.36-4.13.78-5.88,1.22l-.67-2.68c2.17-.45,5.06-1.09,7.25-1.44L69.76,4.9c-8,1.49-8.26,1.55-12.84,3L63,26.51a56.38,56.38,0,0,1,9.59-2.26l-.67-4.49C70.07,20.11,67.58,20.54,65.74,21Z" fill="#fff"/><path d="M82.44,4.09h-.53c-.85,2.08-2,4.88-2.72,7C78.3,9,77.08,6.27,76.11,4.24c-2,.12-4,.32-5.92.6A105.44,105.44,0,0,1,77,16.7l.44,7.05c1.39-.09,2.8-.12,4.22-.11l.07-7.06A102.28,102.28,0,0,1,88,4.39C86.16,4.22,84.31,4.13,82.44,4.09Z" fill="#fff"/><path d="M98.71,16.15a3.76,3.76,0,0,0-.25-.31c3-1.53,5-7.91-1.54-10a13.13,13.13,0,0,0-1.65-.41c-2.27-.42-4.58-.74-6.91-1L86.52,23.89l.46,0q2.7.29,5.33.79C99,25.85,100.28,18.4,98.71,16.15Zm-4.53,4a1.56,1.56,0,0,1-1.1.13l-1.73-.31.54-3.24c.67.11,1.33.23,2,.36C95.69,17.46,94.76,19.75,94.18,20.11ZM92.55,12.7l.52-3.09,1.37.24c.94.18,1.46.48,1.6.91a2.15,2.15,0,0,1-.58,2.09A2.38,2.38,0,0,1,94,13Z" fill="#fff"/><path d="M109.58,22.13c4.69-.88,8.06-7.77,2.81-11.3a9.48,9.48,0,0,0-1.69-.89q-3.39-1.41-6.94-2.49L98,26.16q1.92.59,3.78,1.29l2.33-6.09,1,.39c-.07,2.08-.2,4.86-.35,6.94,1.23.55,2.43,1.14,3.61,1.77l.42-.78C109.09,27.42,109.4,24.4,109.58,22.13Zm-1-4.25a1.64,1.64,0,0,1-1.14-.09c-.56-.23-1.12-.46-1.68-.67l1.41-3.68c.6.22,1.19.46,1.78.7C111.08,15.06,109.4,17.58,108.6,17.88Z" fill="#fff"/><path d="M123.62,16.77a132.87,132.87,0,0,0-15,13.82c1.23.67,2.44,1.38,3.62,2.13l2.5-2.48,3.06,2.14-1.47,3.21c1.11.85,2.19,1.75,3.23,2.67a129.41,129.41,0,0,0,7.85-18.81Zm-2.56,7.74-1.4,3.57-1.47-1Z" fill="#fff"/><path d="M133.18,24.18,120.05,38.67c1,.87,1.89,1.78,2.79,2.71l14.08-13.57Q135.12,25.94,133.18,24.18Z" fill="#fff"/><path d="M144.29,36.68l-7.89,5.61a98.3,98.3,0,0,0,4.83-9.62c-1-1.3-2.15-2.55-3.28-3.77L123.61,42.19c.88,1,1.74,1.94,2.56,3l7.52-6.09a90.77,90.77,0,0,1-5.24,9.11c.72,1,1.41,2.05,2.06,3.11L147.17,41C146.26,39.55,145.3,38.09,144.29,36.68Z" fill="#fff"/><path d="M151.34,48.16c-3.09-6.27-9.44-4.65-11,0a12,12,0,0,0-.38,4.48,6.07,6.07,0,0,1-.2,2.25c-.27.61-1.72,1.56-2.47.12s-.15-2.17,1.17-2.87l.5-.26q-1-2-2.16-3.86l-.48.29c-6,3.71-4,10.61.56,11.65a7.22,7.22,0,0,0,5.75-1.49,5.63,5.63,0,0,0,1.19-1.39c1.47-2.28.15-4.95,1-7.32a1.17,1.17,0,0,1,2.12-.21,1.63,1.63,0,0,1-.18,2.51,3.19,3.19,0,0,1-.45.25l-.52.23q1,2.2,1.84,4.48l.53-.2C152.4,55.16,152.78,51.17,151.34,48.16Z" fill="#fff"/><path d="M43.29,125c-1-.85-1.93-1.74-2.85-2.66L26.83,136a76.39,76.39,0,0,0,9.35,8l2.62-3.64q-2.71-1.95-5.22-4.14Z" fill="#fff"/><path d="M54.07,142.66c2.14-5,1.53-9.57-1.52-11.32s-7.24,0-10.57,4.48l-.6.84c-5.78,8.46,1.32,13.64,6.12,12.67,2.59-.52,4.69-2.51,6.23-5.91Zm-5.38-7.42A1.62,1.62,0,0,1,51,136.3c.22,1-.17,2.46-1.18,4.4l-.39.74c-1.57,2.88-3.08,3.93-4.49,3.12-.92-.57-1.87-1.75.44-5.54C46.31,137.61,47.42,135.86,48.69,135.24Z" fill="#fff"/><path d="M66.91,150.33l.14-.56q-2.4-.5-4.74-1.14c-1.39,4.54-4.14,1.4-4.16,1.36-.55-1,0-2.9.54-4.47l.42-1.2c2.45-6.61,4.59-2.86,4.61-2.82a3.44,3.44,0,0,1,0,2.16l-.14.52c1.46.41,3,.77,4.45,1.07.81-6.06-1.82-8.22-4.18-9-3.42-1-6.94,1.52-9.19,6.6l-.35.82c-4.41,10.6,4.86,13,8.81,11.36A6.54,6.54,0,0,0,66.91,150.33Z" fill="#fff"/><path d="M73.85,138.73a128.2,128.2,0,0,1-9.18,18q2.82.62,5.73,1l1.44-3.23c1.56.19,3.14.34,4.73.44l.84,3.44c.78,0,1.56.06,2.34.08,1.23,0,2.45,0,3.67,0a121.32,121.32,0,0,1-5.89-19.34C76.29,139,75.06,138.89,73.85,138.73Zm-.23,11.43L75,146.62l.66,3.73C75,150.3,74.28,150.24,73.62,150.16Z" fill="#fff"/><path d="M89.14,153.53l-1.64-14.7c-1.36.15-2.73.26-4.12.31l.77,19.25a76.48,76.48,0,0,0,12.76-1.57L96,152.43C93.75,152.9,91.46,153.27,89.14,153.53Z" fill="#fff"/><path d="M99.52,136.17l6.17,18.25c1.68-.56,3.32-1.18,5-1.86l-7.41-17.79C102,135.28,100.78,135.75,99.52,136.17Z" fill="#fff"/><path d="M118.62,138.54c-1.49-.67-2.91-.8-5.42-.48a5,5,0,0,1-2.39-.09c-1.47-.68-.21-3,1.32-2.4a2,2,0,0,1,.92.93l.29.49c1.25-.74,2.48-1.51,3.68-2.33l-.32-.46c-2-2.92-5.19-3.9-7.85-2.43a5.87,5.87,0,0,0,1.23,10.78,11.1,11.1,0,0,0,4,.12,6.2,6.2,0,0,1,2.31,0,1.31,1.31,0,0,1,.07,2.44c-1.86,1.11-2.59.11-3.14-.92l-.25-.49c-1.42.73-2.86,1.42-4.33,2.05l.21.51c3,6.58,11.29,3.49,12.94-.79,1.07-2.79-.84-5-1.45-5.66A5.88,5.88,0,0,0,118.62,138.54Z" fill="#fff"/><path d="M125.28,136.77l1.42-1.18c5.84-5.15-.4-11.11-4.66-11.32a5.24,5.24,0,0,0-3.76,1.28q-2.09,1.77-4.33,3.34l11,15.81c1.43-1,2.82-2,4.18-3.13Zm-.84-5.62a1.6,1.6,0,0,1-.59,1l-1.38,1.13-2.58-3.21,1.32-1.09C122.57,127.89,124.55,130.09,124.44,131.15ZM119,126.4Z" fill="#fff"/><path d="M136.84,123.81q-1.89,2.67-2.78,3.88l0,0-.05,0c0-.27,0-1.87,0-4.8l-4.58-1.47,0-.05q4.25-1.35,4.56-1.47s0-1.6,0-4.75l0,0,2.79,3.86,0,0,4.56-1.47,0,0,0,0q-.89,1.22-2.83,3.83l2.88,3.88,0,0Z" fill="#fff"/><path d="M146,107.57c-.74,2-1.3,3.53-1.65,4.47l0,.06-.07,0c-.05-.27-.46-1.82-1.22-4.65l-4.81-.2,0-.06q3.75-2.43,4-2.63S141.79,103,141,100l0-.06,3.71,3,0,0,4-2.63h0l0,.06q-.53,1.41-1.71,4.45l3.79,3,0,.06S149.16,107.74,146,107.57Z" fill="#fff"/><path d="M150.5,89.47c-.18,2.17-.31,3.75-.4,4.75v.07H150c-.12-.24-.92-1.63-2.42-4.15l-4.68,1.08v-.06q3-3.34,3.17-3.6s-.84-1.36-2.46-4.06v-.06L148,85.32h0l3.17-3.6h0v.07c-.1,1-.25,2.58-.47,4.74l4.44,1.86v.07S153.61,88.79,150.5,89.47Z" fill="#fff"/><path d="M150.07,70.85c.4,2.13.68,3.7.85,4.68v.07h-.06c-.18-.2-1.32-1.33-3.42-3.37l-4.24,2.27v-.06c1.32-2.67,2-4.1,2.11-4.31t-3.44-3.26v-.07l4.72.68h0l2.11-4.3h0l0,.07c.17,1,.43,2.55.78,4.69l4.78.64v.06Z" fill="#fff"/><g clip-path="url(#a)"><g clip-path="url(#a)"><path d="M109.37,90.91c7.48-5.4,12.13-12.93,12.13-21.25,0-16.43-18.1-29.75-40.43-29.75S40.64,53.23,40.64,69.66c0,8.49,4.83,16.15,12.58,21.57-4.07,3.73-6.47,8.3-6.47,13.24,0,12.57,15.55,22.76,34.72,22.76S116.2,117,116.2,104.47c0-5.08-2.54-9.77-6.83-13.56" fill="#fff"/><path d="M127.7,63.57h-2.52a26,26,0,0,0-1.41-4.18c-.19-.43-.4-.85-.61-1.28s-.46-.85-.7-1.24a27,27,0,0,0-1.52-2.26,33.74,33.74,0,0,0-3.46-4,39.67,39.67,0,0,0-3.91-3.34,43,43,0,0,0-4.25-2.78,47.26,47.26,0,0,0-9.16-4,57.59,57.59,0,0,0-9.58-2.17,71.69,71.69,0,0,0-9.45-.65H81a71.57,71.57,0,0,0-9.45.65,57.37,57.37,0,0,0-9.58,2.17,47.26,47.26,0,0,0-9.16,4,41.9,41.9,0,0,0-4.25,2.78,39.67,39.67,0,0,0-3.91,3.34,33.74,33.74,0,0,0-3.46,4,27,27,0,0,0-1.52,2.26c-.25.39-.48.81-.7,1.24s-.42.85-.61,1.28a25.92,25.92,0,0,0-1.41,4.17H34.34A19.72,19.72,0,0,0,34.27,103h.07a19.21,19.21,0,0,0,7-1.34c3,15,18.46,26.8,37.3,27.74q1.2.06,2.43.06c18.88,0,34.79-10.86,39.11-25.35.24-.8.45-1.61.61-2.43A19.13,19.13,0,0,0,127.7,103h.07a19.72,19.72,0,0,0-.07-39.43m0,34.08a14,14,0,0,1-6.42-1.58V86.83c.18-.29.35-.59.52-.89l2.91-4.44a3.44,3.44,0,0,1,4.79-1,3.53,3.53,0,0,1,1,4.85,3.44,3.44,0,0,1-2.82,1.56v5.35a8.74,8.74,0,0,0,7.22-4,8.93,8.93,0,0,0-2.45-12.26,8.63,8.63,0,0,0-6.81-1.24,30.77,30.77,0,0,0,.33-4.91l0-1h1.75a14.37,14.37,0,0,1,0,28.73M36.43,74.82l-.29-.06a8.57,8.57,0,0,0-6.56,1.3,8.8,8.8,0,0,0-3.73,5.62,8.89,8.89,0,0,0,1.29,6.64,8.71,8.71,0,0,0,7.22,4V86.92a3.44,3.44,0,0,1-2.82-1.56A3.53,3.53,0,0,1,31,82.73a3.47,3.47,0,0,1,1.47-2.22,3.44,3.44,0,0,1,4.79,1l3.15,4.8c.11.18.21.37.32.54v9.22a14,14,0,0,1-6.45,1.59,14.37,14.37,0,0,1,0-28.73h1.79c0,.34,0,.67,0,1a30.72,30.72,0,0,0,.33,4.9M81,124.07c-.82,0-1.63,0-2.43-.11a26.45,26.45,0,0,1-24-26.31V89.13c-.5-.27-1-.56-1.46-.87A22,22,0,0,1,50.8,86.5a21.66,21.66,0,0,1-2.36-2.43,21.07,21.07,0,0,1-4.83-13.48c0-.57,0-1.13.07-1.68a21.61,21.61,0,0,1,.38-2.68,22,22,0,0,1,.74-2.67,20.66,20.66,0,0,1,36.41-5.29,20.67,20.67,0,0,1,36.42,5.3,21.16,21.16,0,0,1,1.12,5.35c0,.55.06,1.11.06,1.67A21,21,0,0,1,109,88.46c-.48.31-1,.59-1.48.85v8.34A26.46,26.46,0,0,1,81,124.07" fill="#000001"/><path d="M96.32,102.2a15.91,15.91,0,0,1-12.43,11.12V94.16A10.78,10.78,0,0,0,90,90a20.86,20.86,0,0,1-7.91-6c-.3-.36-.59-.73-.86-1.12-.27.39-.56.76-.86,1.12A20.84,20.84,0,0,1,72.5,90a10.71,10.71,0,0,0,6.11,4.21v24.62a21.58,21.58,0,0,0,2.43.14,21.19,21.19,0,0,0,21-18.52l-5.2-1.07a15,15,0,0,1-.55,2.87" fill="#000001"/><path d="M65.86,69.1l9-.13a10.62,10.62,0,0,0-21.07.32v2.47a10.72,10.72,0,0,0,10.57,9.6A11.38,11.38,0,0,0,66,81.23l-.15-10Z" fill="#000001"/><path d="M127.7,68.91H126l0,1a30.77,30.77,0,0,1-.33,4.91,8.63,8.63,0,0,1,6.81,1.24,8.93,8.93,0,0,1,2.45,12.26,8.74,8.74,0,0,1-7.22,4V86.93a3.44,3.44,0,0,0,2.82-1.56,3.53,3.53,0,0,0-1-4.85,3.44,3.44,0,0,0-4.79,1l-2.91,4.44c-.17.3-.34.6-.52.89v9.24a14,14,0,0,0,6.42,1.58,14.37,14.37,0,0,0,0-28.74" fill="#fff"/><path d="M40.44,86.29l-3.15-4.8a3.44,3.44,0,0,0-4.79-1,3.53,3.53,0,0,0-1,4.85,3.44,3.44,0,0,0,2.82,1.56v5.35a8.71,8.71,0,0,1-7.22-4,8.89,8.89,0,0,1-1.29-6.64,8.8,8.8,0,0,1,3.73-5.62,8.57,8.57,0,0,1,6.56-1.3l.29.06a30.64,30.64,0,0,1-.33-4.9c0-.34,0-.67,0-1H34.34a14.37,14.37,0,0,0,0,28.73,14,14,0,0,0,6.45-1.59V86.83c-.11-.17-.21-.36-.32-.54" fill="#fff"/><path d="M99.84,69h8.89A10.68,10.68,0,1,0,98.19,81.5a10,10,0,0,0,1.65-.13Z" fill="#000001"/></g></g></svg>